PathFileType  4	(X/Y/Z) C:\Users\antoi\Documents\MyRepositories\mobilecap\ResultsAnalysis
DataRate	CameraRate	NumFrames	NumMarkers	Units	OrigDataRate	OrigDataStartFrame	OrigNumFrames
100.0	100.0	4	51	mm	100.0	19	150
Frame#	Time	r_knee			r_shank_antsup			r_ankle			r_calc			r_5meta			r_toe			L_knee			L_shank_antsup			L_ankle			L_calc			L_5meta			L_toe			r_sh2			r_sh3			r_sh4			L_sh2			L_sh3			r_thigh1			r_thigh2			r_thigh3			r_thigh4			r_thigh5			L_thigh1			L_thigh2			L_thigh3			L_thigh4			r.ASIS			r.PSIS			L.ASIS			L.PSIS			C7			R_Shoulder			L_Shoulder			R_Sternum			L_Sternum			R_humerus			R_elbow_med			R_elbow_lat			R_forearm			R_wrist_radius			R_wrist_ulna			L_humerus			L_elbow_med			L_elbow_lat			L_forearm			L_wrist_radius			L_wrist_ulna			R_HJC			L_HJC			R_HJC_reg			L_HJC_reg			
		X1	Y1	Z1	X2	Y2	Z2	X3	Y3	Z3	X4	Y4	Z4	X5	Y5	Z5	X6	Y6	Z6	X7	Y7	Z7	X8	Y8	Z8	X9	Y9	Z9	X10	Y10	Z10	X11	Y11	Z11	X12	Y12	Z12	X13	Y13	Z13	X14	Y14	Z14	X15	Y15	Z15	X16	Y16	Z16	X17	Y17	Z17	X18	Y18	Z18	X19	Y19	Z19	X20	Y20	Z20	X21	Y21	Z21	X22	Y22	Z22	X23	Y23	Z23	X24	Y24	Z24	X25	Y25	Z25	X26	Y26	Z26	X27	Y27	Z27	X28	Y28	Z28	X29	Y29	Z29	X30	Y30	Z30	X31	Y31	Z31	X32	Y32	Z32	X33	Y33	Z33	X34	Y34	Z34	X35	Y35	Z35	X36	Y36	Z36	X37	Y37	Z37	X38	Y38	Z38	X39	Y39	Z39	X40	Y40	Z40	X41	Y41	Z41	X42	Y42	Z42	X43	Y43	Z43	X44	Y44	Z44	X45	Y45	Z45	X46	Y46	Z46	X47	Y47	Z47	X48	Y48	Z48	X49	Y49	Z49	X50	Y50	Z50	X51	Y51	Z51	

19	0.18000000	139.40929	465.83897	-90.55554	156.76680	393.95605	-67.73947	141.63489	91.37085	-106.72006	70.95354	58.16665	-144.66774	243.79016	46.35088	-81.89959	285.42196	68.87019	-137.67498	-52.58412	435.12289	-404.56043	-84.12642	370.88135	-411.55188	-353.48172	226.13496	-374.70374	-401.15099	273.14984	-316.26665	-375.39382	124.23934	-409.09951	-330.19421	80.77284	-366.67296	159.93955	281.50462	-65.80696	81.52634	390.79873	-75.53382	77.03317	275.64063	-78.78354	-130.68332	447.67094	-414.60851	-227.74882	373.85194	-412.36350	114.12498	781.96071	-94.65845	154.08506	674.83189	-87.89276	112.85720	641.24400	-44.80874	20.87075	754.25256	-32.73936	53.39805	642.17928	-44.57915	45.10726	711.51226	-402.86474	39.27010	573.19889	-412.25115	-71.61331	716.67158	-408.64745	-69.09774	574.62995	-405.21349	77.24893	908.59882	-106.56259	-110.76660	904.92693	-178.85717	67.13405	884.24636	-364.53926	-115.50850	895.04728	-285.38778	-43.95748	1374.43411	-210.76882	-0.80349	1301.57051	-56.36052	26.16390	1323.52341	-372.80273	62.41124	1278.74265	-188.09715	65.44559	1281.13651	-232.31703	-4.81480	1055.80048	2.01827	-47.42950	959.51617	-64.89079	-40.27886	972.99975	6.22645	-12.07537	858.35878	29.66216	-10.90458	740.10373	35.77302	-56.96393	739.26664	35.43479	65.82141	1195.46963	-419.59761	-5.86476	985.73504	-408.00878	19.26432	997.20421	-462.01718	74.93866	901.62254	-475.95831	91.76261	776.06343	-470.74520	61.20181	768.38301	-492.05943	14.44864	825.95513	-128.07385	12.03752	810.86703	-327.78146	20.53181	817.78776	-132.58787	12.95708	801.99151	-302.85101	
20	0.19000000	144.06841	465.83229	-89.22718	160.10420	393.67047	-66.64729	142.01265	91.49487	-106.64623	71.04852	58.37414	-144.71033	243.91961	46.21398	-81.79832	285.63261	68.33952	-137.65561	-28.42892	435.76587	-403.55769	-60.48895	371.95347	-410.22185	-332.25487	232.26136	-371.35467	-379.61469	279.74867	-312.85743	-354.66130	130.70341	-405.59656	-309.51991	87.08672	-363.21833	161.95084	281.20031	-64.90546	84.68776	391.55897	-74.93198	79.06104	276.40586	-78.61669	-105.60645	449.59891	-412.86516	-203.98643	377.64211	-409.99628	124.51056	782.64358	-93.15645	162.71908	674.69772	-86.29640	120.84132	641.84690	-43.22737	30.70569	756.50481	-31.36037	61.27442	643.82613	-43.16268	60.36539	714.07630	-400.62044	58.63664	576.11936	-410.67476	-57.26634	715.80363	-406.47361	-49.71934	573.85067	-403.68934	89.34044	911.24691	-105.45637	-99.58179	907.53388	-176.12616	77.13655	887.31743	-363.19583	-104.95174	897.46397	-282.49092	-32.27773	1377.16715	-208.72307	12.15165	1304.60411	-54.77344	37.12690	1326.50199	-370.75232	74.15818	1281.34561	-186.73747	76.90794	1283.78015	-230.91492	10.75398	1058.92232	3.94522	-32.33632	962.38742	-62.39292	-24.36030	975.99433	8.81797	5.15848	861.65718	32.16210	6.94215	743.41048	38.67791	-39.11035	742.28917	38.59781	76.48800	1198.58556	-417.61808	4.20134	989.29031	-405.93740	29.42520	1000.44929	-460.06312	84.50557	904.67211	-474.41909	100.61161	778.93930	-469.52300	69.84013	771.60956	-490.78356	26.40373	828.58632	-126.43561	22.38330	813.72269	-326.11744	32.11940	820.90064	-130.96803	23.53143	804.79488	-301.03535	
21	0.20000000	148.31453	465.83737	-88.07335	163.06348	393.46845	-65.71638	142.40902	91.64173	-106.59299	71.13075	58.60908	-144.75254	244.03468	46.10469	-81.72369	285.86400	67.84859	-137.65146	-4.41778	437.22291	-402.43238	-36.68136	373.62747	-408.68057	-310.06122	237.47068	-368.03930	-358.00968	285.12724	-310.00757	-331.67417	135.86669	-401.65872	-286.42959	92.85050	-358.84313	163.69111	280.99876	-64.13132	87.49711	392.31513	-74.52747	80.86455	277.17341	-78.60069	-80.68606	451.92912	-411.12832	-180.07592	381.45153	-407.67828	134.34561	783.23365	-91.97947	170.83001	674.57589	-85.13904	128.47619	642.44025	-41.97131	40.21554	758.67987	-30.10642	68.82351	645.43188	-41.91217	75.24336	717.17733	-398.57245	77.62033	579.62321	-409.17175	-43.02156	715.50328	-404.33587	-30.49468	573.76451	-402.16852	101.42963	913.54781	-104.51608	-88.58804	910.15294	-173.19035	86.98098	890.46675	-362.12369	-94.64933	900.02955	-279.32616	-20.74721	1379.92353	-206.86504	24.96280	1307.62088	-53.38555	47.68559	1329.37893	-369.03791	85.74062	1284.02883	-185.65153	88.20330	1286.50151	-229.79955	26.02857	1062.06505	5.74874	-17.63361	965.19282	-59.80632	-8.77319	979.03855	11.46320	22.50159	865.03191	34.62717	25.28915	746.81683	41.58115	-20.76256	745.24107	41.81332	86.84783	1201.53948	-415.89929	14.03646	992.58994	-404.29831	39.42805	1003.49392	-458.45025	94.06446	907.59754	-473.02917	109.62987	781.73203	-468.39309	78.72524	774.66075	-489.62223	38.26665	830.98524	-124.95829	32.34672	816.66761	-324.62097	43.53945	823.80676	-129.59775	33.82693	807.59539	-299.53549	
22	0.21000000	152.26598	465.89635	-87.02792	165.77498	393.36899	-64.84872	142.79541	91.82547	-106.52155	71.20067	58.86121	-144.77784	244.12894	46.00815	-81.64698	286.09738	67.39167	-137.63940	19.38956	439.37073	-401.21469	-12.72858	375.67472	-406.97181	-287.00107	241.60063	-364.77372	-336.14877	289.31150	-307.65560	-306.92439	139.59712	-397.28867	-261.47926	97.75279	-353.65227	165.25112	280.91490	-63.40476	90.13322	393.08747	-74.21053	82.52462	277.97879	-78.62358	-55.97073	454.42399	-409.52902	-156.04632	384.97648	-405.50297	143.65969	783.78783	-91.11043	178.50856	674.53814	-84.37058	135.84783	643.07467	-40.99715	49.48260	760.78134	-28.93117	76.16908	647.02543	-40.77426	89.60085	720.86736	-396.76034	96.20259	583.64383	-407.72574	-28.86829	715.77789	-402.28811	-11.45162	574.33678	-400.69157	113.26930	915.46748	-103.63748	-77.79443	912.79215	-170.22510	96.74359	893.64225	-361.22284	-84.54349	902.71483	-276.09740	-9.33173	1382.66543	-205.14809	37.62378	1310.58111	-52.14927	57.84122	1332.11840	-367.65692	97.17566	1286.76376	-184.81414	99.33326	1289.26449	-228.94659	41.00461	1065.17944	7.45316	-3.27499	967.87775	-57.05542	6.50618	982.08226	14.17848	39.89903	868.42388	37.04975	44.11024	750.27842	44.43380	-1.94479	748.09749	45.06154	96.86518	1204.29192	-414.48353	23.67216	995.56455	-403.04283	49.24554	1006.28651	-457.15620	103.58657	910.33932	-471.81125	118.79389	784.37873	-467.36590	87.86160	777.46910	-488.58073	49.84886	833.13100	-123.62842	42.00502	819.65765	-323.28126	54.62959	826.52429	-128.38506	43.79066	810.35544	-298.25489	
